<svg width="107" height="30" viewBox="0 0 107 30" fill="none" xmlns="http://www.w3.org/2000/svg">
<path d="M13.4375 24.0625C13.4375 23.6078 13.2875 23.1979 12.9594 22.8845C12.6278 22.5679 12.207 22.4423 11.7507 22.4764C10.8903 22.5399 9.94562 22.3046 8.90511 21.7223C7.9711 21.1996 7.33864 20.2373 7.06886 18.7188L7.06863 18.7176C7.00036 18.3388 6.8155 18.0157 6.51988 17.7695C6.22683 17.5255 5.87978 17.4 5.49844 17.4C5.0172 17.4 4.60186 17.5909 4.29056 17.9579C3.97228 18.3332 3.86541 18.7858 3.96575 19.2659C4.39224 21.562 5.41039 23.2713 7.06643 24.3054C8.64984 25.2941 10.2734 25.7532 11.9268 25.649L11.9268 25.6491L11.9372 25.6482C12.3438 25.6141 12.7005 25.4468 12.9878 25.1569C13.2845 24.8577 13.4385 24.4838 13.4375 24.0625ZM13.4375 24.0625H12.9375M13.4375 24.0625C13.4375 24.0619 13.4375 24.0614 13.4375 24.0608L12.9375 24.0625M12.9375 24.0625C12.9385 24.3515 12.8369 24.599 12.6328 24.8049C12.4286 25.0108 12.1828 25.1258 11.8953 25.15L6.57656 18.8063C6.86406 20.4245 7.55885 21.5419 8.66094 22.1587C9.76302 22.7754 10.8052 23.0475 11.7875 22.975C12.1229 22.9499 12.3984 23.0403 12.6141 23.2462C12.8297 23.4521 12.9375 23.7242 12.9375 24.0625ZM0.500001 17.6101V17.61C0.500001 15.3258 1.40105 12.794 3.27298 10.0034C5.09066 7.2938 7.82732 4.34583 11.5 1.16038C15.1736 4.34678 17.9108 7.29523 19.7285 10.0049C21.6004 12.7954 22.5009 15.3267 22.5 17.6098V17.61C22.5 20.874 21.4471 23.5739 19.3512 25.7453C17.2569 27.9151 14.6516 29 11.5 29C8.34736 29 5.74165 27.9151 3.64732 25.7453C1.5515 23.5739 0.499076 20.8741 0.500001 17.6101Z" fill="#8BECF4" stroke="black"/>
<path d="M38.4477 26.46C37.7157 26.46 37.0377 26.34 36.4137 26.1C35.7897 25.86 35.2497 25.524 34.7937 25.092C34.3497 24.672 34.0257 24.174 33.8217 23.598L36.0177 22.77C36.1617 23.226 36.4437 23.592 36.8637 23.868C37.2957 24.156 37.8237 24.3 38.4477 24.3C38.9277 24.3 39.3477 24.21 39.7077 24.03C40.0797 23.85 40.3677 23.586 40.5717 23.238C40.7757 22.902 40.8777 22.494 40.8777 22.014V19.782L41.3277 20.322C40.9917 20.91 40.5417 21.354 39.9777 21.654C39.4137 21.954 38.7717 22.104 38.0517 22.104C37.1397 22.104 36.3237 21.894 35.6037 21.474C34.8837 21.054 34.3197 20.478 33.9117 19.746C33.5037 19.014 33.2997 18.192 33.2997 17.28C33.2997 16.356 33.5037 15.534 33.9117 14.814C34.3197 14.094 34.8777 13.53 35.5857 13.122C36.2937 12.702 37.0977 12.492 37.9977 12.492C38.7297 12.492 39.3717 12.648 39.9237 12.96C40.4877 13.26 40.9557 13.698 41.3277 14.274L41.0037 14.868V12.708H43.2357V22.014C43.2357 22.866 43.0257 23.628 42.6057 24.3C42.1977 24.972 41.6337 25.5 40.9137 25.884C40.2057 26.268 39.3837 26.46 38.4477 26.46ZM38.3397 19.926C38.8437 19.926 39.2817 19.818 39.6537 19.602C40.0377 19.374 40.3377 19.062 40.5537 18.666C40.7697 18.27 40.8777 17.814 40.8777 17.298C40.8777 16.794 40.7637 16.344 40.5357 15.948C40.3197 15.54 40.0197 15.222 39.6357 14.994C39.2637 14.766 38.8317 14.652 38.3397 14.652C37.8477 14.652 37.4037 14.766 37.0077 14.994C36.6117 15.222 36.2997 15.54 36.0717 15.948C35.8557 16.344 35.7477 16.794 35.7477 17.298C35.7477 17.802 35.8557 18.252 36.0717 18.648C36.2997 19.044 36.6057 19.356 36.9897 19.584C37.3857 19.812 37.8357 19.926 38.3397 19.926ZM50.2258 22.716C49.2658 22.716 48.3898 22.494 47.5978 22.05C46.8178 21.606 46.1938 21 45.7258 20.232C45.2698 19.464 45.0418 18.588 45.0418 17.604C45.0418 16.62 45.2698 15.744 45.7258 14.976C46.1938 14.208 46.8178 13.602 47.5978 13.158C48.3778 12.714 49.2538 12.492 50.2258 12.492C51.1858 12.492 52.0558 12.714 52.8358 13.158C53.6158 13.602 54.2338 14.208 54.6898 14.976C55.1578 15.732 55.3918 16.608 55.3918 17.604C55.3918 18.588 55.1578 19.464 54.6898 20.232C54.2218 21 53.5978 21.606 52.8178 22.05C52.0378 22.494 51.1738 22.716 50.2258 22.716ZM50.2258 20.556C50.7538 20.556 51.2158 20.43 51.6118 20.178C52.0198 19.926 52.3378 19.578 52.5658 19.134C52.8058 18.678 52.9258 18.168 52.9258 17.604C52.9258 17.028 52.8058 16.524 52.5658 16.092C52.3378 15.648 52.0198 15.3 51.6118 15.048C51.2158 14.784 50.7538 14.652 50.2258 14.652C49.6858 14.652 49.2118 14.784 48.8038 15.048C48.3958 15.3 48.0718 15.648 47.8318 16.092C47.6038 16.524 47.4898 17.028 47.4898 17.604C47.4898 18.168 47.6038 18.678 47.8318 19.134C48.0718 19.578 48.3958 19.926 48.8038 20.178C49.2118 20.43 49.6858 20.556 50.2258 20.556ZM63.678 22.716C62.718 22.716 61.83 22.542 61.014 22.194C60.21 21.846 59.502 21.36 58.89 20.736C58.29 20.112 57.822 19.38 57.486 18.54C57.15 17.7 56.982 16.782 56.982 15.786C56.982 14.79 57.144 13.872 57.468 13.032C57.804 12.18 58.272 11.448 58.872 10.836C59.484 10.212 60.198 9.732 61.014 9.396C61.83 9.048 62.718 8.874 63.678 8.874C64.638 8.874 65.496 9.036 66.252 9.36C67.02 9.684 67.668 10.116 68.196 10.656C68.724 11.184 69.102 11.766 69.33 12.402L67.134 13.428C66.882 12.756 66.456 12.204 65.856 11.772C65.256 11.328 64.53 11.106 63.678 11.106C62.838 11.106 62.094 11.304 61.446 11.7C60.81 12.096 60.312 12.642 59.952 13.338C59.604 14.034 59.43 14.85 59.43 15.786C59.43 16.722 59.604 17.544 59.952 18.252C60.312 18.948 60.81 19.494 61.446 19.89C62.094 20.286 62.838 20.484 63.678 20.484C64.53 20.484 65.256 20.268 65.856 19.836C66.456 19.392 66.882 18.834 67.134 18.162L69.33 19.188C69.102 19.824 68.724 20.412 68.196 20.952C67.668 21.48 67.02 21.906 66.252 22.23C65.496 22.554 64.638 22.716 63.678 22.716ZM71.1195 22.5V8.874H73.4775V22.5H71.1195ZM80.2986 22.716C79.2906 22.716 78.4086 22.488 77.6526 22.032C76.8966 21.576 76.3086 20.958 75.8886 20.178C75.4686 19.398 75.2586 18.534 75.2586 17.586C75.2586 16.602 75.4686 15.732 75.8886 14.976C76.3206 14.208 76.9026 13.602 77.6346 13.158C78.3786 12.714 79.2066 12.492 80.1186 12.492C80.8866 12.492 81.5586 12.618 82.1346 12.87C82.7226 13.122 83.2206 13.47 83.6286 13.914C84.0366 14.358 84.3486 14.868 84.5646 15.444C84.7806 16.008 84.8886 16.62 84.8886 17.28C84.8886 17.448 84.8766 17.622 84.8526 17.802C84.8406 17.982 84.8106 18.138 84.7626 18.27H77.2026V16.47H83.4306L82.3146 17.316C82.4226 16.764 82.3926 16.272 82.2246 15.84C82.0686 15.408 81.8046 15.066 81.4326 14.814C81.0726 14.562 80.6346 14.436 80.1186 14.436C79.6266 14.436 79.1886 14.562 78.8046 14.814C78.4206 15.054 78.1266 15.414 77.9226 15.894C77.7306 16.362 77.6586 16.932 77.7066 17.604C77.6586 18.204 77.7366 18.738 77.9406 19.206C78.1566 19.662 78.4686 20.016 78.8766 20.268C79.2966 20.52 79.7766 20.646 80.3166 20.646C80.8566 20.646 81.3126 20.532 81.6846 20.304C82.0686 20.076 82.3686 19.77 82.5846 19.386L84.4926 20.322C84.3006 20.79 84.0006 21.204 83.5926 21.564C83.1846 21.924 82.6986 22.206 82.1346 22.41C81.5826 22.614 80.9706 22.716 80.2986 22.716ZM89.611 22.716C88.927 22.716 88.333 22.602 87.829 22.374C87.325 22.146 86.935 21.822 86.659 21.402C86.383 20.97 86.245 20.472 86.245 19.908C86.245 19.368 86.365 18.888 86.605 18.468C86.845 18.036 87.217 17.676 87.721 17.388C88.225 17.1 88.861 16.896 89.629 16.776L92.833 16.254V18.054L90.079 18.522C89.611 18.606 89.263 18.756 89.035 18.972C88.807 19.188 88.693 19.47 88.693 19.818C88.693 20.154 88.819 20.424 89.071 20.628C89.335 20.82 89.659 20.916 90.043 20.916C90.535 20.916 90.967 20.814 91.339 20.61C91.723 20.394 92.017 20.1 92.221 19.728C92.437 19.356 92.545 18.948 92.545 18.504V15.984C92.545 15.564 92.377 15.216 92.041 14.94C91.717 14.652 91.285 14.508 90.745 14.508C90.241 14.508 89.791 14.646 89.395 14.922C89.011 15.186 88.729 15.54 88.549 15.984L86.623 15.048C86.815 14.532 87.115 14.088 87.523 13.716C87.943 13.332 88.435 13.032 88.999 12.816C89.563 12.6 90.175 12.492 90.835 12.492C91.639 12.492 92.347 12.642 92.959 12.942C93.571 13.23 94.045 13.638 94.381 14.166C94.729 14.682 94.903 15.288 94.903 15.984V22.5H92.671V20.826L93.175 20.79C92.923 21.21 92.623 21.564 92.275 21.852C91.927 22.128 91.531 22.344 91.087 22.5C90.643 22.644 90.151 22.716 89.611 22.716ZM97.0824 22.5V12.708H99.2964V14.634L99.1164 14.292C99.3444 13.704 99.7164 13.26 100.232 12.96C100.76 12.648 101.372 12.492 102.068 12.492C102.788 12.492 103.424 12.648 103.976 12.96C104.54 13.272 104.978 13.71 105.29 14.274C105.602 14.826 105.758 15.468 105.758 16.2V22.5H103.4V16.758C103.4 16.326 103.316 15.954 103.148 15.642C102.98 15.33 102.746 15.09 102.446 14.922C102.158 14.742 101.816 14.652 101.42 14.652C101.036 14.652 100.694 14.742 100.394 14.922C100.094 15.09 99.8604 15.33 99.6924 15.642C99.5244 15.954 99.4404 16.326 99.4404 16.758V22.5H97.0824Z" fill="black"/>
</svg>
