<svg width="23" height="30" viewBox="0 0 23 30" fill="none" xmlns="http://www.w3.org/2000/svg">
<path d="M13.4375 24.0625C13.4375 23.6078 13.2875 23.1979 12.9594 22.8845C12.6278 22.5679 12.207 22.4423 11.7507 22.4764C10.8903 22.5399 9.94562 22.3046 8.90511 21.7223C7.9711 21.1996 7.33864 20.2373 7.06886 18.7188L7.06863 18.7176C7.00036 18.3388 6.8155 18.0157 6.51988 17.7695C6.22683 17.5255 5.87978 17.4 5.49844 17.4C5.0172 17.4 4.60186 17.5909 4.29056 17.9579C3.97228 18.3332 3.86541 18.7858 3.96575 19.2659C4.39224 21.562 5.41039 23.2713 7.06643 24.3054C8.64984 25.2941 10.2734 25.7532 11.9268 25.649L11.9268 25.6491L11.9372 25.6482C12.3438 25.6141 12.7005 25.4468 12.9878 25.1569C13.2845 24.8577 13.4385 24.4838 13.4375 24.0625ZM13.4375 24.0625H12.9375M13.4375 24.0625C13.4375 24.0619 13.4375 24.0614 13.4375 24.0608L12.9375 24.0625M12.9375 24.0625C12.9385 24.3515 12.8369 24.599 12.6328 24.8049C12.4286 25.0108 12.1828 25.1258 11.8953 25.15L6.57656 18.8063C6.86406 20.4245 7.55885 21.5419 8.66094 22.1587C9.76302 22.7754 10.8052 23.0475 11.7875 22.975C12.1229 22.9499 12.3984 23.0403 12.6141 23.2462C12.8297 23.4521 12.9375 23.7242 12.9375 24.0625ZM0.500001 17.6101V17.61C0.500001 15.3258 1.40105 12.794 3.27298 10.0034C5.09066 7.2938 7.82732 4.34583 11.5 1.16038C15.1736 4.34678 17.9108 7.29523 19.7285 10.0049C21.6004 12.7954 22.5009 15.3267 22.5 17.6098V17.61C22.5 20.874 21.4471 23.5739 19.3512 25.7453C17.2569 27.9151 14.6516 29 11.5 29C8.34736 29 5.74165 27.9151 3.64732 25.7453C1.5515 23.5739 0.499076 20.8741 0.500001 17.6101Z" fill="#8BECF4" stroke="black"/>
</svg>
